HIERARCHY
ROOT Hips
{
 OFFSET 0.000000 0.000000 0.000000
 CHANNELS 6 Xposition Yposition Zposition Yrotation Xrotation Zrotation
 JOINT Chest
 {
  OFFSET 0.000000 11.804363 -0.063453
  CHANNELS 3 Yrotation Xrotation Zrotation
  JOINT Chest2
  {
   OFFSET 0.000000 8.678182 0.115260
   CHANNELS 3 Yrotation Xrotation Zrotation
   JOINT Chest3
   {
    OFFSET 0.000000 7.837483 0.000000
    CHANNELS 3 Yrotation Xrotation Zrotation
    JOINT Chest4
    {
     OFFSET 0.000000 7.837483 0.000000
     CHANNELS 3 Yrotation Xrotation Zrotation
     JOINT Neck
     {
      OFFSET 0.000000 11.057757 0.000000
      CHANNELS 3 Yrotation Xrotation Zrotation
      JOINT Head
      {
       OFFSET 0.000000 8.693641 0.164845
       CHANNELS 3 Yrotation Xrotation Zrotation
       End Site
       {
        OFFSET 0.000000 17.305431 0.029040
       }
      }
     }
     JOINT RightCollar
     {
      OFFSET -2.774797 6.242379 0.000000
      CHANNELS 3 Yrotation Xrotation Zrotation
      JOINT RightShoulder
      {
       OFFSET -15.165888 0.000000 0.000000
       CHANNELS 3 Yrotation Xrotation Zrotation
       JOINT RightElbow
       {
        OFFSET -29.069762 0.000000 0.000000
        CHANNELS 3 Yrotation Xrotation Zrotation
        JOINT RightWrist
        {
         OFFSET -24.025936 0.000000 0.010022
         CHANNELS 3 Yrotation Xrotation Zrotation
         JOINT Prop1
         {
          OFFSET -8.918196 -1.004563 2.009127
          CHANNELS 3 Yrotation Xrotation Zrotation
          End Site
          {
           OFFSET 31.104663 -79.934182 29.919600
          }
         }
         End Site
         {
          OFFSET -18.137761 0.000000 0.000000
         }
        }
       }
      }
     }
     JOINT LeftCollar
     {
      OFFSET 2.774797 6.242379 0.000000
      CHANNELS 3 Yrotation Xrotation Zrotation
      JOINT LeftShoulder
      {
       OFFSET 15.165888 0.000000 0.000000
       CHANNELS 3 Yrotation Xrotation Zrotation
       JOINT LeftElbow
       {
        OFFSET 29.069762 0.000000 0.000000
        CHANNELS 3 Yrotation Xrotation Zrotation
        JOINT LeftWrist
        {
         OFFSET 24.025936 0.000000 0.010022
         CHANNELS 3 Yrotation Xrotation Zrotation
         End Site
         {
          OFFSET 18.137761 0.000000 0.000000
         }
        }
       }
      }
     }
    }
   }
  }
 }
 JOINT RightHip
 {
  OFFSET -10.091435 0.310918 0.031726
  CHANNELS 3 Yrotation Xrotation Zrotation
  JOINT RightKnee
  {
   OFFSET 0.000000 -55.384733 0.006606
   CHANNELS 3 Yrotation Xrotation Zrotation
   JOINT RightAnkle
   {
    OFFSET 0.000000 -43.441540 0.082754
    CHANNELS 3 Yrotation Xrotation Zrotation
    JOINT RightToe
    {
     OFFSET 0.000000 -9.166765 19.367417
     CHANNELS 3 Yrotation Xrotation Zrotation
     End Site
     {
      OFFSET 0.000000 -1.500446 6.247857
     }
    }
   }
  }
 }
 JOINT LeftHip
 {
  OFFSET 10.091435 0.310918 0.031726
  CHANNELS 3 Yrotation Xrotation Zrotation
  JOINT LeftKnee
  {
   OFFSET 0.000000 -55.384733 0.006606
   CHANNELS 3 Yrotation Xrotation Zrotation
   JOINT LeftAnkle
   {
    OFFSET 0.000000 -43.441540 0.082754
    CHANNELS 3 Yrotation Xrotation Zrotation
    JOINT LeftToe
    {
     OFFSET 0.000000 -9.166765 19.367417
     CHANNELS 3 Yrotation Xrotation Zrotation
     End Site
     {
      OFFSET 0.000000 -1.500446 6.247857
     }
    }
   }
  }
 }
}
MOTION
Frames: 5
Frame Time: 0.004167
-260.821953 107.479906 -41.284440 133.619752 -8.165200 -0.413083 3.117721 6.468228 6.395794 1.293973 2.917406 2.794307 1.293973 2.917406 2.794307 0.956944 2.194035 2.089107 -5.838604 12.560162 -3.462540 -9.669292 -12.882146 -4.150554 9.824838 -2.052554 12.227605 29.085152 -46.627162 45.590364 58.175483 -11.879979 -3.662790 35.764004 -7.651720 -31.251884 28.202677 -37.493840 -93.231322 -3.378501 -4.466596 -13.324302 -89.586989 -42.935813 -18.220345 -7.531534 -5.465762 -7.680055 -7.265112 -8.592266 -2.955505 -12.936624 9.894246 -1.614555 -5.526520 17.865372 0.292085 -9.429818 -19.667324 -3.427148 0.000000 0.000000 0.000000 -6.113160 -12.874435 0.700316 -4.880594 21.655584 0.341832 -30.923870 2.615707 -1.260869 0.047160 -4.921417 -1.097368
-260.841576 107.462619 -41.231331 133.798756 -8.118051 -0.468713 3.058665 6.459796 6.366947 1.268301 2.912659 2.782399 1.268302 2.912661 2.782398 0.937775 2.190335 2.080310 -5.824629 12.540600 -3.424739 -9.658950 -12.916843 -4.083471 9.754961 -2.067716 12.252574 28.956884 -46.634405 45.669016 58.506589 -11.693090 -3.782493 35.918958 -7.582630 -31.423434 28.363317 -37.515524 -93.444263 -3.425680 -4.472279 -13.284068 -89.743201 -42.873158 -18.025893 -7.788628 -5.320756 -7.818521 -7.328508 -8.492798 -3.068997 -13.015227 9.800576 -1.539313 -5.614577 17.979365 0.282363 -9.439850 -19.721811 -3.452034 -0.000000 0.000000 0.000000 -6.171979 -12.993810 0.730831 -4.977117 21.702422 0.355268 -30.994988 2.636972 -1.328060 0.046166 -4.942476 -1.068525
-260.861099 107.444432 -41.178592 133.983108 -8.074494 -0.527532 2.994993 6.454314 6.336290 1.240558 2.909154 2.769724 1.240558 2.909155 2.769721 0.917046 2.187554 2.070944 -5.807696 12.520488 -3.380475 -9.645731 -12.952301 -4.005297 9.682659 -2.085008 12.271899 28.887081 -46.603388 45.705738 58.842768 -11.508752 -3.949696 36.116365 -7.511020 -31.629626 28.644489 -37.503236 -93.754725 -3.473276 -4.482410 -13.245414 -89.893643 -42.807152 -17.823606 -8.059853 -5.162379 -7.966364 -7.414210 -8.376046 -3.213804 -13.076384 9.710403 -1.458574 -5.722117 18.097607 0.271928 -9.454149 -19.778207 -3.474020 0.000000 -0.000000 -0.000000 -6.240100 -13.112870 0.763752 -5.064868 21.755761 0.370902 -31.072879 2.656971 -1.394153 0.045129 -4.963067 -1.039454
-260.880397 107.425495 -41.126264 134.171737 -8.034131 -0.588386 2.927974 6.451232 6.303764 1.211318 2.906664 2.756245 1.211316 2.906665 2.756239 0.895192 2.185526 2.060979 -5.788831 12.500061 -3.330848 -9.631124 -12.988111 -3.917703 9.608301 -2.104050 12.286565 28.865658 -46.540995 45.707304 59.183757 -11.324941 -4.156008 36.346447 -7.436780 -31.863801 29.023549 -37.460281 -94.144628 -3.520965 -4.496122 -13.208008 -90.037137 -42.739612 -17.617181 -8.345840 -4.993826 -8.122323 -7.518607 -8.245622 -3.381242 -13.122998 9.623160 -1.374103 -5.845186 18.219639 0.261282 -9.472555 -19.836503 -3.493646 -0.000000 0.000000 0.000000 -6.316317 -13.231129 0.798237 -5.144604 21.814040 0.388330 -31.156496 2.675883 -1.459271 0.044054 -4.983074 -1.010268
-260.899347 107.405962 -41.074393 134.363573 -7.996574 -0.650124 2.858880 6.449994 6.269309 1.181156 2.904965 2.741924 1.181150 2.904963 2.741915 0.872645 2.184085 2.050384 -5.769058 12.479560 -3.276959 -9.616617 -13.023859 -3.822359 9.532258 -2.124466 12.297549 28.882360 -46.454041 45.680679 59.529379 -11.139758 -4.392958 36.599512 -7.359914 -32.119225 29.477774 -37.390214 -94.595723 -3.568422 -4.512551 -13.171519 -90.172545 -42.672390 -17.410266 -8.647187 -4.818271 -8.285119 -7.637990 -8.105053 -3.562634 -13.157963 9.538296 -1.287645 -5.979822 18.345011 0.250936 -9.494912 -19.896686 -3.511453 -0.000000 -0.000000 -0.000000 -6.399415 -13.348098 0.833445 -5.217080 21.875697 0.407148 -31.244795 2.693886 -1.523538 0.042951 -5.002380 -0.981077
